<svg id="Layer_1" data-name="Layer 1" xmlns="http://www.w3.org/2000/svg" viewBox="0 0 110 32.13"><defs><style>.cls-1{fill:#92d400;}</style></defs><title>Artboard 1</title><path class="cls-1" d="M110,20.08,108,12a2.71,2.71,0,0,0,1.08-.85c.35-.42.51-.61.6-.75a.32.32,0,0,0,0-.43.9.9,0,0,0-.42-.22.25.25,0,0,0-.23.13,5.06,5.06,0,0,1-1,1.27,4.22,4.22,0,0,1-1.23.42c-.17.05-1.5.19-1.67.28a.37.37,0,0,0,0,.61.61.61,0,0,0,.5.08c.13,0,1.37-.24,1.37-.24s2.49,8,2.51,8.07.25.2.32.17a.38.38,0,0,0,.18-.15A.42.42,0,0,0,110,20.08Z"/><path class="cls-1" d="M103,17.65a.47.47,0,0,0,.17-.12,1.85,1.85,0,0,1-.28-1.18c0-.47.18-1.63.24-2.58a12.72,12.72,0,0,0-.2-2.4,3.59,3.59,0,0,0,.78-.66,4.88,4.88,0,0,0,.76-1.26,3,3,0,0,0-.5-.67,3.15,3.15,0,0,0,.5-1.1,20.19,20.19,0,0,0,.23-2.85,2.55,2.55,0,0,1,.21-1.2,2.11,2.11,0,0,0,.29-.42,4.62,4.62,0,0,0,.23-1.25,7.78,7.78,0,0,0-.08-1.1c0-.28-.1-.39-.28-.18,0-.18,0-.11,0-.34s-.3-.17-.36.22c0-.38-.06-.52-.22-.54s-.2.4-.23.56c0,0,0-.09,0-.18,0-.29-.18-.31-.28-.25a4.11,4.11,0,0,0-.21,1.08c0,.21-.11.58-.16.94a2.6,2.6,0,0,1-.1-.49c0-.14-.27-.39-.43-.35s0,.31,0,.48,0,.32,0,.6A1.71,1.71,0,0,0,103,3a.86.86,0,0,0,.36.49c.12,1.82-.48,1.93-.68,3.11-.06.33-.11.6-.17.84a.58.58,0,0,0-.19-.1,5.06,5.06,0,0,1-1.08,1.14,2.17,2.17,0,0,1-.91.38l-.12.08L100,8.58c.11-.17.22-.38.39-.61a2.94,2.94,0,0,0,.28-2.06,6.48,6.48,0,0,1-.17-1.53,2.2,2.2,0,0,0-2-1.82,2,2,0,0,0-2.16,1.27,3,3,0,0,0-.09,1.08,4.12,4.12,0,0,0,.13.77c0,.11-.22-.1-.35,0s-.09.63,0,.88.48.6.72.49a3.47,3.47,0,0,0,.73,1.2,1.79,1.79,0,0,0,.34.29,4,4,0,0,1,0,.5c-1.3.2-1.71.15-2.21.26-.28.06-1,.89-2.42,2.49a.86.86,0,0,0,0,.33l-.33.48a4.72,4.72,0,0,0-.31.55c-.11-.19-.22-.36-.32-.51a10.25,10.25,0,0,0-1.68-1.77,1.53,1.53,0,0,0,.07-.35,7.38,7.38,0,0,0-1.7-1.18,6.71,6.71,0,0,0-2,.19l-.23,0,0-.35c.11-.11.22-.22.34-.31a4,4,0,0,0,.4-.5c.08-.16.2-.5.29-.72a.59.59,0,0,0,.33-.13.79.79,0,0,0,.25-.43,1,1,0,0,0,.07-.46c0-.16-.08-.18-.06-.23a6.27,6.27,0,0,0,.25-.71,3.65,3.65,0,0,0,.13-.71,3.46,3.46,0,0,1-.08-.54.77.77,0,0,0-.24-.59c-.15-.1-.27-.37-.47-.42s-.14-.22-.39-.29-.43-.1-.52-.14a1.27,1.27,0,0,0-.53-.27.9.9,0,0,0-.55,0,.91.91,0,0,1-.43.14,1.27,1.27,0,0,0-.44,0c-.12,0-.44.11-.48.21s-.25.06-.37.24-.54.35-.52.66-.09.3-.17.61a.9.9,0,0,0,0,.64c.07.34,0,.25,0,.44s.08.12.05.27a1.78,1.78,0,0,0,0,.54,3.73,3.73,0,0,0,.13.52.39.39,0,0,0,.19.28,2.73,2.73,0,0,0,.09.62,2.87,2.87,0,0,0,.75,1.08l-.06.47-.13,0c-.29-.09-.5-.12-.77-.23a4,4,0,0,1-1.45-1,1,1,0,0,0-.32.12,9,9,0,0,1-.92-1.65c-.37-.6-.71-1-1-1.45-.15-.29-.39-.76-.51-1a.57.57,0,0,1,0-.47.7.7,0,0,0,.08-.51c0-.2-.1-.58-.15-.78s.09-.57-.14-.5-.37.43-.3.88c-.06-.17-.34-.34-.42-.76s-.18-.72-.34-.7-.14.32-.1.69a1.84,1.84,0,0,1-.16-.34c-.05-.13-.16-.34-.32-.3s-.13.24-.07.53c-.07-.13-.11-.19-.26-.14s0,.26.07.53c-.22-.18-.24,0-.24.18s.23.68.34,1.06a1.52,1.52,0,0,0,.58.79,3.05,3.05,0,0,0,.32.24.41.41,0,0,1,.17.16s.11.34.25.74c.22.58.2,1.16.61,2.18a4.3,4.3,0,0,0,1.38,2l.06.05a1.72,1.72,0,0,0-.15.77,4.42,4.42,0,0,0,1.67,1.1,11.11,11.11,0,0,1-.44,2.46,10.22,10.22,0,0,1-1.43,1.9,11.54,11.54,0,0,1-1.67,1.65c-.15.17-.23.23-.13.38A14,14,0,0,0,80,19.31l0,0c-.67.69-1.45,1.53-1.51,1.6-.15-.56-.06-.66-.34-.81a.73.73,0,0,0-.93.33,4.71,4.71,0,0,1-1,.68,2.87,2.87,0,0,0-.48.48c-.22.21-.3.17-.33.35a.11.11,0,0,0,.13.11s-.13.13-.1.24a.12.12,0,0,0,.17.06s-.14.11-.1.23a.12.12,0,0,0,.17.06.2.2,0,0,0-.06.26.17.17,0,0,0,.17,0c0,.08-.06.27.13.31s.47-.2.53-.27a1.68,1.68,0,0,0,.27-.18c.24-.23.53-.58.73-.81a2.08,2.08,0,0,0,.28.85,1.38,1.38,0,0,0,1.25.57,3.93,3.93,0,0,0,1.94-1.06c.41-.32,1.07-.86,1.71-1.4a9.4,9.4,0,0,0,2,.64c.18.8.42,1.77.44,2.09a7.53,7.53,0,0,0-.29,1.75,3.61,3.61,0,0,1-.38,2c-.19.27-.48.26-.66.69A1.11,1.11,0,0,0,84,29.3a1.83,1.83,0,0,1,.35,1.05,1.63,1.63,0,0,0,.3,1c0,.11,0,.62.58.64.28,0,.32-.14.3-.21a.25.25,0,0,0,.21,0,.1.1,0,0,0,.07-.14.23.23,0,0,0,.13,0,.12.12,0,0,0,.06-.13.09.09,0,0,0,.12,0,.12.12,0,0,0,0-.1.12.12,0,0,0,.1,0,.14.14,0,0,0,0-.15.61.61,0,0,1-.21-.37c0-.15-.05-.74-.13-1.11a3.58,3.58,0,0,1-.23-1.16,14.46,14.46,0,0,1,1-2.21,6.37,6.37,0,0,0,.8-2.58c0-.38,0-1.25-.07-1.92h0a6.54,6.54,0,0,0,1.52-.23c.48-.1.54-.13.42-.49S89,20,88.59,18.8a14.71,14.71,0,0,1-.77-3.46,14.52,14.52,0,0,1,.38-2.39c.09-.51.14-.75.15-.86a2.41,2.41,0,0,1,.74.44,1.71,1.71,0,0,0,.41-.25c.68.44.82.94,1.44,1.53a6,6,0,0,1,1.16,1.52,4.81,4.81,0,0,1-.08.56c-.07.34-.48.75-.5.84l-.1.49a1.89,1.89,0,0,0,.41,1.22c.32.48,1.48.25,1.5.09a.34.34,0,0,0-.05-.23c.31-.23.61-.74.38-2-.06-.31-.12-.59-.2-.87A5.05,5.05,0,0,0,94,14l.5-.37a1.51,1.51,0,0,0,.59.22,10.26,10.26,0,0,1,1.39-1.27c.12.33.18.5.56,1.79a3.68,3.68,0,0,1,0,2.42,6.68,6.68,0,0,1-.45,1.32.55.55,0,0,0,.18.12c-.2.45-.42.93-.59,1.34-.35.86-.8,1.9-1.26,3a3.59,3.59,0,0,0,.66.47,10.15,10.15,0,0,0-.66,1.49,21,21,0,0,0-.42,3.06c0,.3-.32.57-.49,1a1.43,1.43,0,0,0,.12,1c.08.18,0,.58,0,1.18a1.86,1.86,0,0,0,.34,1l.11.1s.1.13.16.15A.23.23,0,0,0,95,32a.19.19,0,0,0,.17.11c.09,0,.13,0,.15-.08a.18.18,0,0,0,.2.1.14.14,0,0,0,.12-.11.25.25,0,0,0,.24.09A.17.17,0,0,0,96,32a.43.43,0,0,0,.54,0c.06-.09-.12-.5-.25-.7a5.12,5.12,0,0,1-.13-.72c0-.39-.37-1.51-.39-2a1.71,1.71,0,0,1,.2-.94,10.23,10.23,0,0,1,1.27-2.18,15,15,0,0,0,.66-1.84,5.35,5.35,0,0,0,.65,0c.32-.74,1.3-2.9,1.47-3.28a3.62,3.62,0,0,1,.89.5c.41.32.45,1.19.52,1.75a3.41,3.41,0,0,0,.83.13,9.55,9.55,0,0,1-1,2.5,5.47,5.47,0,0,1-1,.78.8.8,0,0,0-.49.85c0,.5,1.06.65,1.52,1.41a8.34,8.34,0,0,0,.79,1.56c.4.46.73.36,1,.24s-.27-.5-.35-1.37a8.47,8.47,0,0,0-.45-1.92c0-.12.16-.32.29-.48.72-.81,1.52-1.58,1.93-2a4.08,4.08,0,0,0,1.11-2,.82.82,0,0,0,.24-.14,3.88,3.88,0,0,0-.64-2A23.89,23.89,0,0,0,103,17.65Z"/><g id="final"><path class="cls-1" d="M12.7,22.45c-3.13,0-5-2.13-5-5.58s2-5.52,5-5.52a8.68,8.68,0,0,1,3.75.92V5.66a12.66,12.66,0,0,0-4.6-.85A11.79,11.79,0,0,0,0,16.92C0,24,4.68,28.77,11.85,28.77a13.88,13.88,0,0,0,6.78-2,11.89,11.89,0,0,1-2-5.44A7.54,7.54,0,0,1,12.7,22.45Z"/><path class="cls-1" d="M25.26,5.39V18.2c0,3.08.69,4.46,2.92,4.46A4.09,4.09,0,0,0,32,20.06V5.39h7.22V28H32.49V24.47h-.05a7.29,7.29,0,0,1-6.91,4.14C20.85,28.61,18,25,18,18.67V5.39Z"/><path class="cls-1" d="M56.55,5.95a6.61,6.61,0,0,0-4-1.14,5.86,5.86,0,0,0-5.26,4.72V5.39H40.83V28h6.48V16.79c0-3.63,2.6-4.65,3.67-4.65a4,4,0,0,1,1.33.22,13.24,13.24,0,0,1,3-5.21A12.22,12.22,0,0,1,56.55,5.95Z"/><path class="cls-1" d="M60.88,18.89a5.08,5.08,0,0,0,5.37,4.41A7.77,7.77,0,0,0,71,21.44l3.29,3.93a13.45,13.45,0,0,1-9.14,3.4c-7.22,0-12-4.73-12-11.85S58,4.81,64.55,4.81c6.11,0,10.52,4.52,10.52,11.32v2.76Zm3.51-8.55c-2,0-3.29,1.65-3.51,4.57h7C67.79,11.93,66.62,10.33,64.39,10.33Z"/></g></svg>