<?xml version="1.0" encoding="utf-8"?>
<!-- Generator: Adobe Illustrator 21.0.0, SVG Export Plug-In . SVG Version: 6.00 Build 0)  -->
<svg version="1.1" id="Layer_1" xmlns="http://www.w3.org/2000/svg" xmlns:xlink="http://www.w3.org/1999/xlink" x="0px" y="0px"
	 viewBox="0 0 152 23.8" style="enable-background:new 0 0 152 23.8;" xml:space="preserve">
<style type="text/css">
	.st0{fill:#FFFFFF;}
	.st1{fill:#1ABC9C;}
</style>
<g>
	<g>
		<path class="st0" d="M39,19.5h-3.5v-8.3h-8.9v8.3H23V0.5h3.5v8.1h8.9V0.5H39V19.5z"/>
		<path class="st0" d="M46.9,5.8c1,0,1.9,0.2,2.7,0.5c0.8,0.3,1.5,0.8,2.1,1.4c0.6,0.6,1,1.3,1.3,2.2c0.3,0.9,0.5,1.8,0.5,2.9
			c0,1.1-0.2,2-0.5,2.9c-0.3,0.9-0.8,1.6-1.3,2.2c-0.6,0.6-1.3,1.1-2.1,1.4c-0.8,0.3-1.7,0.5-2.7,0.5c-1,0-1.9-0.2-2.7-0.5
			c-0.8-0.3-1.5-0.8-2.1-1.4c-0.6-0.6-1-1.3-1.3-2.2c-0.3-0.9-0.5-1.8-0.5-2.9c0-1.1,0.2-2,0.5-2.9C41,9,41.5,8.3,42.1,7.7
			c0.6-0.6,1.3-1.1,2.1-1.4C45,6,45.9,5.8,46.9,5.8z M46.9,17.2c1.1,0,1.9-0.4,2.5-1.1c0.5-0.8,0.8-1.9,0.8-3.3s-0.3-2.6-0.8-3.3
			c-0.5-0.8-1.4-1.1-2.5-1.1c-1.1,0-2,0.4-2.5,1.1c-0.5,0.8-0.8,1.9-0.8,3.3c0,1.4,0.3,2.5,0.8,3.3C44.9,16.8,45.8,17.2,46.9,17.2z"
			/>
		<path class="st0" d="M63.4,8.6c-0.1,0.1-0.2,0.2-0.3,0.3C63,9,62.9,9,62.7,9c-0.2,0-0.3,0-0.5-0.1c-0.2-0.1-0.4-0.2-0.6-0.3
			c-0.2-0.1-0.5-0.2-0.8-0.3c-0.3-0.1-0.7-0.1-1.1-0.1c-0.6,0-1.1,0.1-1.5,0.4c-0.4,0.3-0.5,0.6-0.5,1.1c0,0.3,0.1,0.5,0.3,0.7
			c0.2,0.2,0.4,0.4,0.7,0.5c0.3,0.1,0.7,0.3,1.1,0.4c0.4,0.1,0.8,0.2,1.2,0.4c0.4,0.1,0.8,0.3,1.2,0.5c0.4,0.2,0.7,0.4,1.1,0.7
			c0.3,0.3,0.6,0.6,0.7,1c0.2,0.4,0.3,0.8,0.3,1.4c0,0.6-0.1,1.2-0.4,1.8c-0.2,0.5-0.6,1-1,1.4c-0.5,0.4-1,0.7-1.7,0.9
			c-0.7,0.2-1.4,0.3-2.3,0.3c-0.5,0-0.9,0-1.4-0.1c-0.4-0.1-0.9-0.2-1.3-0.3c-0.4-0.1-0.8-0.3-1.1-0.5c-0.3-0.2-0.6-0.4-0.9-0.7
			l0.7-1.2c0.1-0.1,0.2-0.3,0.3-0.3c0.1-0.1,0.3-0.1,0.5-0.1c0.2,0,0.4,0.1,0.6,0.2c0.2,0.1,0.4,0.2,0.6,0.4
			c0.2,0.1,0.5,0.3,0.8,0.4c0.3,0.1,0.7,0.2,1.2,0.2c0.4,0,0.7,0,1-0.1c0.3-0.1,0.5-0.2,0.7-0.4c0.2-0.1,0.3-0.3,0.4-0.5
			c0.1-0.2,0.1-0.4,0.1-0.6c0-0.3-0.1-0.6-0.3-0.8c-0.2-0.2-0.4-0.4-0.7-0.5c-0.3-0.1-0.7-0.3-1.1-0.4c-0.4-0.1-0.8-0.2-1.2-0.4
			c-0.4-0.1-0.8-0.3-1.2-0.5c-0.4-0.2-0.8-0.4-1.1-0.7c-0.3-0.3-0.6-0.6-0.7-1.1c-0.2-0.4-0.3-0.9-0.3-1.5c0-0.5,0.1-1.1,0.3-1.6
			c0.2-0.5,0.5-0.9,1-1.3c0.4-0.4,1-0.7,1.6-0.9c0.6-0.2,1.4-0.3,2.2-0.3c0.9,0,1.8,0.2,2.5,0.5C63,6.6,63.6,7,64.1,7.5L63.4,8.6z"
			/>
		<path class="st0" d="M65.8,23.8V6h2c0.2,0,0.4,0,0.5,0.1c0.1,0.1,0.2,0.2,0.3,0.4l0.3,1.2c0.5-0.6,1.2-1.1,1.9-1.5
			c0.7-0.4,1.5-0.6,2.5-0.6c0.7,0,1.4,0.2,2,0.5c0.6,0.3,1.1,0.7,1.6,1.3c0.4,0.6,0.8,1.3,1,2.1c0.2,0.9,0.4,1.8,0.4,2.9
			c0,1-0.1,1.9-0.4,2.8c-0.3,0.9-0.7,1.6-1.2,2.2c-0.5,0.6-1.1,1.1-1.8,1.5s-1.5,0.5-2.4,0.5c-0.8,0-1.4-0.1-1.9-0.3
			c-0.5-0.2-1-0.6-1.4-1v5.5H65.8z M72.1,8.3c-0.7,0-1.2,0.1-1.7,0.4C69.9,9,69.4,9.4,69,9.9v6c0.4,0.5,0.8,0.8,1.2,0.9
			c0.4,0.2,0.9,0.3,1.4,0.3c0.5,0,0.9-0.1,1.3-0.3c0.4-0.2,0.7-0.5,1-0.8c0.3-0.4,0.5-0.8,0.6-1.4c0.1-0.6,0.2-1.2,0.2-2
			c0-0.8-0.1-1.5-0.2-2c-0.1-0.5-0.3-1-0.5-1.3c-0.2-0.3-0.5-0.6-0.9-0.7C72.9,8.4,72.5,8.3,72.1,8.3z"/>
		<path class="st0" d="M83.5,2.1c0,0.3-0.1,0.5-0.2,0.8c-0.1,0.2-0.3,0.5-0.5,0.6c-0.2,0.2-0.4,0.3-0.7,0.4
			c-0.3,0.1-0.5,0.2-0.8,0.2c-0.3,0-0.5-0.1-0.8-0.2c-0.2-0.1-0.5-0.3-0.6-0.4c-0.2-0.2-0.3-0.4-0.4-0.6c-0.1-0.2-0.2-0.5-0.2-0.8
			c0-0.3,0.1-0.6,0.2-0.8C79.6,1,79.8,0.8,80,0.6c0.2-0.2,0.4-0.3,0.6-0.4C80.9,0.1,81.1,0,81.4,0c0.3,0,0.6,0.1,0.8,0.2
			c0.3,0.1,0.5,0.3,0.7,0.4c0.2,0.2,0.3,0.4,0.5,0.7C83.4,1.5,83.5,1.8,83.5,2.1z M83,6v13.4h-3.2V6H83z"/>
		<path class="st0" d="M90,19.7c-1.2,0-2.1-0.3-2.7-1c-0.6-0.7-0.9-1.6-0.9-2.7V8.4H85c-0.2,0-0.3-0.1-0.5-0.2
			c-0.1-0.1-0.2-0.3-0.2-0.5V6.5l2.2-0.4l0.7-3.7c0-0.2,0.1-0.3,0.2-0.4C87.6,2,87.8,1.9,88,1.9h1.7v4.2h3.5v2.3h-3.5v7.3
			c0,0.4,0.1,0.7,0.3,1c0.2,0.2,0.5,0.4,0.8,0.4c0.2,0,0.4,0,0.5-0.1c0.1,0,0.3-0.1,0.4-0.2c0.1-0.1,0.2-0.1,0.3-0.2
			c0.1,0,0.2-0.1,0.2-0.1c0.1,0,0.2,0,0.2,0.1c0.1,0,0.1,0.1,0.2,0.2l1,1.6c-0.5,0.4-1,0.7-1.6,0.9C91.3,19.6,90.7,19.7,90,19.7z"/>
		<path class="st0" d="M105.2,19.5h-1.5c-0.3,0-0.5,0-0.7-0.1c-0.2-0.1-0.3-0.3-0.4-0.6l-0.3-1c-0.3,0.3-0.7,0.6-1,0.8
			c-0.3,0.2-0.7,0.4-1,0.6c-0.3,0.2-0.7,0.3-1.1,0.4c-0.4,0.1-0.8,0.1-1.3,0.1c-0.6,0-1.1-0.1-1.6-0.2c-0.5-0.2-0.9-0.4-1.2-0.7
			c-0.3-0.3-0.6-0.7-0.8-1.1c-0.2-0.5-0.3-1-0.3-1.6c0-0.5,0.1-1,0.4-1.5c0.3-0.5,0.7-0.9,1.3-1.3c0.6-0.4,1.4-0.7,2.5-1
			c1-0.3,2.3-0.4,3.8-0.4V11c0-0.9-0.2-1.6-0.6-2c-0.4-0.4-0.9-0.7-1.7-0.7c-0.5,0-1,0.1-1.3,0.2c-0.3,0.1-0.7,0.3-0.9,0.4
			c-0.3,0.2-0.5,0.3-0.7,0.4c-0.2,0.1-0.5,0.2-0.7,0.2c-0.2,0-0.4-0.1-0.6-0.2c-0.2-0.1-0.3-0.3-0.4-0.4l-0.6-1
			c1.5-1.4,3.4-2.1,5.6-2.1c0.8,0,1.5,0.1,2.1,0.4c0.6,0.3,1.1,0.6,1.6,1.1c0.4,0.5,0.8,1,1,1.6c0.2,0.6,0.3,1.3,0.3,2.1V19.5z
			 M98.9,17.4c0.3,0,0.6,0,0.9-0.1c0.3-0.1,0.5-0.2,0.8-0.3c0.2-0.1,0.5-0.3,0.7-0.4c0.2-0.2,0.5-0.4,0.7-0.6v-2.2
			c-0.9,0-1.7,0.1-2.4,0.2c-0.6,0.1-1.1,0.3-1.5,0.5c-0.4,0.2-0.7,0.4-0.8,0.6c-0.2,0.2-0.2,0.5-0.2,0.8c0,0.6,0.2,1,0.5,1.2
			C98,17.3,98.4,17.4,98.9,17.4z"/>
		<path class="st0" d="M110.8,0v19.5h-3.2V0H110.8z"/>
	</g>
	<g>
		<path class="st1" d="M116.2,10.8v8.7h-1.4V0.3h4.9c2.2,0,3.9,0.4,5,1.3c1.1,0.9,1.6,2.1,1.6,3.8c0,0.7-0.1,1.4-0.4,2
			c-0.3,0.6-0.6,1.1-1.1,1.6c-0.5,0.5-1,0.8-1.7,1.1c-0.7,0.3-1.4,0.5-2.3,0.6c0.2,0.1,0.4,0.3,0.6,0.5l6.6,8.3h-1.2
			c-0.1,0-0.3,0-0.4-0.1c-0.1-0.1-0.2-0.1-0.3-0.3l-6.1-7.8c-0.2-0.2-0.3-0.3-0.5-0.4c-0.2-0.1-0.4-0.1-0.8-0.1H116.2z M116.2,9.7
			h3.3c0.8,0,1.6-0.1,2.3-0.3c0.7-0.2,1.2-0.5,1.7-0.9c0.5-0.4,0.8-0.8,1.1-1.4c0.2-0.5,0.4-1.1,0.4-1.8c0-1.4-0.4-2.4-1.3-3
			c-0.9-0.7-2.2-1-3.9-1h-3.5V9.7z"/>
		<path class="st1" d="M129.8,6v8.6c0,1.3,0.3,2.3,0.9,3c0.6,0.7,1.5,1.1,2.7,1.1c0.9,0,1.7-0.2,2.5-0.7c0.8-0.4,1.4-1.1,2.1-1.9V6
			h1.3v13.5h-0.7c-0.2,0-0.4-0.1-0.4-0.4l-0.1-2c-0.6,0.8-1.3,1.4-2.2,1.9c-0.8,0.5-1.7,0.7-2.7,0.7c-0.8,0-1.4-0.1-2-0.4
			c-0.6-0.2-1-0.6-1.4-1c-0.4-0.4-0.7-1-0.8-1.6c-0.2-0.6-0.3-1.3-0.3-2.1V6H129.8z"/>
		<path class="st1" d="M141.4,19.4V6h0.7c0.2,0,0.4,0.1,0.4,0.3l0.1,2c0.6-0.8,1.3-1.4,2.1-1.9c0.8-0.5,1.7-0.7,2.7-0.7
			c0.7,0,1.4,0.1,2,0.4c0.6,0.2,1,0.6,1.4,1c0.4,0.4,0.7,1,0.8,1.6c0.2,0.6,0.3,1.3,0.3,2.1v8.6h-1.3v-8.6c0-1.3-0.3-2.3-0.9-3
			c-0.6-0.7-1.5-1.1-2.7-1.1c-0.9,0-1.7,0.2-2.5,0.7c-0.8,0.5-1.4,1.1-2,1.9v10.1H141.4z"/>
	</g>
	<g>
		<polygon class="st1" points="12.7,6.9 12.7,0.5 6.3,0.5 6.3,6.9 0,6.9 0,13.2 6.3,13.2 6.3,19.5 12.7,19.5 12.7,13.2 19,13.2 
			19,6.9 		"/>
	</g>
</g>
</svg>
