<?xml version="1.0" encoding="utf-8"?>
<!-- Generator: Adobe Illustrator 19.2.1, SVG Export Plug-In . SVG Version: 6.00 Build 0)  -->
<!DOCTYPE svg PUBLIC "-//W3C//DTD SVG 1.1//EN" "http://www.w3.org/Graphics/SVG/1.1/DTD/svg11.dtd">
<svg version="1.1" id="Layer_1" xmlns="http://www.w3.org/2000/svg" xmlns:xlink="http://www.w3.org/1999/xlink" x="0px" y="0px"
	 viewBox="0 0 376.8 59.8" enable-background="new 0 0 376.8 59.8" xml:space="preserve">
<path fill="#6C6A7F" d="M290.1,9c-7.2,0-14.1,5.9-14.1,19.1c0,11.9,5.2,18.8,14,18.8c5.5,0,14-3.7,14-19C303.9,16.2,298.7,9,290.1,9
	z M290.1,39.3c-3.5,0-4.5-5.2-4.5-11.5c0-5,0.7-11.4,4.3-11.4c3.4,0,4.2,6.4,4.2,11.4C294.2,33.2,293.4,39.3,290.1,39.3z"/>
<path fill="#6C6A7F" d="M316.1,14.9h-0.3c0,0-0.3-2.8-0.4-3.8c-0.1-1.1-0.9-1.5-1.5-1.5c-0.6,0-7.1,0-7.1,0c0.2,3.4,0.3,7.4,0.3,11
	v25.6c0,0,7.3,0,8.2,0s1.6-0.7,1.6-1.7c0-1,0-16.9,0-16.9c0-1.5,0.1-2.8,0.4-3.7c1-3.7,3.8-5.2,5.9-5.2c0.2,0,0.5,0,0.7,0
	c1,0,1.4-0.8,1.4-1.7s0-7.8,0-7.8c-0.5-0.1-1-0.2-2.1-0.2C320.6,9,317.7,11.1,316.1,14.9z"/>
<path fill="#6C6A7F" d="M220.5,14.9h-0.3c0,0-0.3-2.8-0.4-3.8c-0.1-1.1-0.9-1.5-1.5-1.5c-0.6,0-7.1,0-7.1,0c0.1,3.4,0.3,7.4,0.3,11
	v25.6c0,0,7.3,0,8.2,0c0.9,0,1.6-0.7,1.6-1.7c0-1,0-16.9,0-16.9c0-1.5,0.2-2.8,0.5-3.7c1-3.7,3.8-5.2,5.9-5.2c0.2,0,0.5,0,0.7,0
	c1,0,1.4-0.8,1.4-1.7s0-7.8,0-7.8c-0.5-0.1-1-0.2-2.1-0.2C225.1,9,222.1,11.1,220.5,14.9z"/>
<path fill="#6C6A7F" d="M346.5,25c0,0,7.5-12.8,7.9-13.7c0.5-0.8,0.1-1.7-0.8-1.7c-0.9,0-8.7,0-8.7,0s-3.4,9.3-6.8,12.6V0
	c0,0-7.4,0-8,0c-1,0-1.7,0.8-1.7,2c0,0.6,0,44.2,0,44.2s7.9,0,8.6,0c0.7,0,1.2-0.4,1.2-1.1c0-0.7,0-10.8,0-10.8
	c0.7-0.5,1.4-1.2,2.1-1.8l4.8,13.7c0,0,9.4,0,9.9,0c0.5,0,0.8-0.5,0.6-1C355.2,44.7,346.5,25,346.5,25z"/>
<path fill="#6C6A7F" d="M100.3,9c-1.9,0-3.6,0.4-5.1,1.3c-1.4,0.9-2.8,2.2-3.7,3.7h-0.1c-1.3-3.1-3.9-5-8-5c-3.7,0-6.8,2.2-8.7,4.9
	h-0.1c0,0-0.3-2.7-0.4-3.3C74,10,73.7,9.6,73.2,9.6c-0.5,0-7.7,0-7.7,0c0.2,3.5,0.3,7,0.3,11v25.6c0,0,7.4,0,8.2,0
	c1,0,1.6-1,1.6-1.8c0-1,0-21.2,0-21.2c0-1,0.2-2.1,0.4-2.8c0.7-2.2,2.2-3.3,3.7-3.3c3.1,0,3.3,3.4,3.3,6.1v22.9c0,0,7.3,0,8.2,0
	c0.9,0,1.6-0.6,1.6-1.8c0-1.1,0-21.4,0-21.4c0-1,0.1-2,0.3-2.6c0.6-2.1,1.9-3.3,3.7-3.3c2.9,0,3.4,3.4,3.4,7.5v21.6c0,0,6.9,0,8,0
	c1.1,0,1.8-0.7,1.8-1.8c0-1,0-21.5,0-21.5C109.8,14.2,106.9,9,100.3,9z"/>
<path fill="#6C6A7F" d="M139.1,24.3c0-7.5-1.8-15.2-12.9-15.2c-4.4,0-8.8,1.7-10.3,2.2c-0.9,0.3-1,1-0.8,1.8
	c0.2,0.8,1.5,5.4,1.5,5.4c2.2-1.3,4.6-2.2,7.5-2.2c3.5,0,5.2,2.1,5.2,5v0.8c-8.3,0.1-16.7,4-16.7,13.6c0,6.4,4.1,11.1,9.6,11.1
	c3.2,0,6.1-1.4,8.1-4.2h0.2c0,0,0.2,1.5,0.3,2.3c0.1,0.8,0.6,1.3,1.3,1.3c0.7,0,7.6,0,7.6,0c-0.4-2.5-0.5-5.5-0.5-8.4V24.3z
	 M129.5,34.7c0,0.7-0.1,1.2-0.2,1.7c-0.7,2.2-2.4,3.1-4,3.1c-1.5,0-3.5-1.3-3.5-4.9c0-5.1,4.6-6.2,7.8-6.3V34.7z"/>
<path fill="#6C6A7F" d="M174.1,0.3c0,0-8,2.5-8.8,2.8c-0.7,0.3-1,0.7-1,1.4c0,0.7,0,29.6,0,29.6c0,5.8,1.1,8.5,3.1,10.5
	c1.8,1.6,4.3,2.3,7.1,2.3c2.5,0,4.6-0.3,6-0.7c0,0-0.1-5.8-0.1-6.5c0-0.7-0.1-1-1-0.9c-0.5,0.1-1,0.1-1.6,0.1c-1.9,0-3.7-1-3.7-5.3
	V16.7c0,0,5.6,0,6.1,0c0.6,0,1-0.6,1-1.1c0-0.5,0-5.9,0-5.9h-7.2V0.3z"/>
<path fill="#6C6A7F" d="M196.2,9.1c-8.2,0-14.6,7.3-14.6,19.7c0,11.4,5.5,18,15.5,18c3.7,0,7.5-0.7,9.9-1.6c0,0-0.8-4.4-1-5.4
	c-0.2-0.9-0.9-1.4-1.9-1.2c-1.5,0.4-3.3,0.7-5.3,0.7c-4.3,0-7.6-2.1-7.7-7.8h17.3c0.2-1,0.3-2.5,0.3-5.1
	C208.6,15.3,204.1,9.1,196.2,9.1z M192,24.6c-0.5,0-1-0.2-0.9-1.1c0.4-3.4,1.7-7.2,4.5-7.2c2.9,0,4.1,3.7,4.1,8.4
	C199.7,24.6,192.5,24.6,192,24.6z"/>
<path fill="#6C6A7F" d="M154.2,23.8c-3.4-2-4.3-3-4.3-4.6c0-1.6,1.1-3.1,3.7-3.1c1.6,0,3,0.4,4.3,1.1c0.5,0.2,0.9,0,1-0.4
	c0.1-0.4,1.5-6.4,1.5-6.4c-1.9-1-4.3-1.7-7.4-1.7c-7.3,0-12,5-12,11.6c0,3.4,1.5,7.2,7.4,10.5c3.2,1.9,4.3,3.1,4.3,4.9
	c0,2.2-1.4,3.3-4,3.3c-2,0-4.2-0.7-5.7-1.5c-0.3-0.2-0.7,0-0.7,0.4c-0.1,0.5-0.1,7.2,1,7.6c1.7,0.5,3.6,0.8,5.4,0.8
	c7.5,0,12.9-4,12.9-11.5C161.6,30.7,159.6,26.9,154.2,23.8z"/>
<path fill="#6C6A7F" d="M369.4,24.2c-3.4-2-4.3-3-4.3-4.6c0-1.6,1.1-3.1,3.7-3.1c1.6,0,3,0.4,4.3,1.1c0.5,0.2,0.9,0,1-0.4
	c0.1-0.4,1.5-6.4,1.5-6.4c-1.9-1-4.3-1.7-7.4-1.7c-7.3,0-12,5-12,11.6c0,3.4,1.5,7.2,7.4,10.5c3.2,1.9,4.3,3.1,4.3,4.9
	c0,2.2-1.4,3.3-4,3.3c-2,0-4.2-0.7-5.7-1.5c-0.3-0.2-0.7,0-0.7,0.4c-0.1,0.5-0.1,7.2,1,7.6c1.7,0.5,3.6,0.8,5.4,0.8
	c7.5,0,12.9-4,12.9-11.5C376.8,31.1,374.7,27.3,369.4,24.2z"/>
<path fill="#6C6A7F" d="M62.8,15.2C61,14.8,59,14.3,57.1,14c-13.4-2.5-25.9-2.8-35.9-1.1c-0.1,0-0.1,0.1,0,0.1c0,0,25,9,41.7,15.1
	l0-7.5C62.9,18.7,62.9,16.9,62.8,15.2z"/>
<path fill="#6C6A7F" d="M83.9,58.6c-6.6-3.8-73.2-42.2-73.5-42.4c-0.3-0.2-0.5-0.1-0.7,0c-5.3,2.4-8.7,5.7-9.5,9.7
	c-2.3,12.1,19.5,26.3,48.7,31.8c12.9,2.4,25.1,2.7,34.9,1.3C84,58.9,84.2,58.7,83.9,58.6z"/>
<path fill="#6C6A7F" d="M270.1,9.6c-2.1,0-2.3,1.1-2.5,2c-0.2,0.8-4.7,21.3-4.8,21.6c-0.1,0.3-0.4,0.3-0.4,0
	c0-0.3-4.5-23.5-4.5-23.5s-6.4,0-6.5,0c-0.7,0-1,0.3-1.1,1c-0.1,0.6-4.2,22.2-4.3,22.5c-0.1,0.3-0.3,0.2-0.4,0
	c-0.1-0.3-5.3-23.5-5.3-23.5s-5.8,0-6.8,0c-1.2,0-1.7,0.9-1.4,2c0.2,0.9,8.5,34.6,8.5,34.6s6.9,0,7.5,0s1-0.4,1.2-0.9
	c0.1-0.5,4.7-22,4.8-22.4c0.1-0.2,0.4-0.3,0.5,0c0.1,0.3,4.7,21.9,4.8,22.4c0,0,0,0,0,0l0.2,0.9h1c0.3,0,2.9,0,5,0
	c1.4,0,2.5,0,2.5,0s4.6-18.9,7.1-28.8l2-7.8C276.8,9.6,272.2,9.6,270.1,9.6z"/>
</svg>
